<svg id="visual" viewBox="0 0 900 600" width="900" height="600" xmlns="http://www.w3.org/2000/svg" xmlns:xlink="http://www.w3.org/1999/xlink" version="1.1"><rect x="0" y="0" width="900" height="600" fill="#001220"></rect><defs><linearGradient id="grad1_0" x1="33.3%" y1="100%" x2="100%" y2="0%"><stop offset="20%" stop-color="#ff0036" stop-opacity="1"></stop><stop offset="80%" stop-color="#ff0036" stop-opacity="1"></stop></linearGradient></defs><defs><linearGradient id="grad1_1" x1="33.3%" y1="100%" x2="100%" y2="0%"><stop offset="20%" stop-color="#ff0036" stop-opacity="1"></stop><stop offset="80%" stop-color="#e20057" stop-opacity="1"></stop></linearGradient></defs><defs><linearGradient id="grad1_2" x1="33.3%" y1="100%" x2="100%" y2="0%"><stop offset="20%" stop-color="#b9006c" stop-opacity="1"></stop><stop offset="80%" stop-color="#e20057" stop-opacity="1"></stop></linearGradient></defs><defs><linearGradient id="grad1_3" x1="33.3%" y1="100%" x2="100%" y2="0%"><stop offset="20%" stop-color="#b9006c" stop-opacity="1"></stop><stop offset="80%" stop-color="#881d74" stop-opacity="1"></stop></linearGradient></defs><defs><linearGradient id="grad1_4" x1="33.3%" y1="100%" x2="100%" y2="0%"><stop offset="20%" stop-color="#57286d" stop-opacity="1"></stop><stop offset="80%" stop-color="#881d74" stop-opacity="1"></stop></linearGradient></defs><defs><linearGradient id="grad1_5" x1="33.3%" y1="100%" x2="100%" y2="0%"><stop offset="20%" stop-color="#57286d" stop-opacity="1"></stop><stop offset="80%" stop-color="#2a275a" stop-opacity="1"></stop></linearGradient></defs><defs><linearGradient id="grad1_6" x1="33.3%" y1="100%" x2="100%" y2="0%"><stop offset="20%" stop-color="#081f3e" stop-opacity="1"></stop><stop offset="80%" stop-color="#2a275a" stop-opacity="1"></stop></linearGradient></defs><defs><linearGradient id="grad1_7" x1="33.3%" y1="100%" x2="100%" y2="0%"><stop offset="20%" stop-color="#081f3e" stop-opacity="1"></stop><stop offset="80%" stop-color="#001220" stop-opacity="1"></stop></linearGradient></defs><defs><linearGradient id="grad2_0" x1="0%" y1="100%" x2="66.7%" y2="0%"><stop offset="20%" stop-color="#ff0036" stop-opacity="1"></stop><stop offset="80%" stop-color="#ff0036" stop-opacity="1"></stop></linearGradient></defs><defs><linearGradient id="grad2_1" x1="0%" y1="100%" x2="66.7%" y2="0%"><stop offset="20%" stop-color="#e20057" stop-opacity="1"></stop><stop offset="80%" stop-color="#ff0036" stop-opacity="1"></stop></linearGradient></defs><defs><linearGradient id="grad2_2" x1="0%" y1="100%" x2="66.7%" y2="0%"><stop offset="20%" stop-color="#e20057" stop-opacity="1"></stop><stop offset="80%" stop-color="#b9006c" stop-opacity="1"></stop></linearGradient></defs><defs><linearGradient id="grad2_3" x1="0%" y1="100%" x2="66.7%" y2="0%"><stop offset="20%" stop-color="#881d74" stop-opacity="1"></stop><stop offset="80%" stop-color="#b9006c" stop-opacity="1"></stop></linearGradient></defs><defs><linearGradient id="grad2_4" x1="0%" y1="100%" x2="66.7%" y2="0%"><stop offset="20%" stop-color="#881d74" stop-opacity="1"></stop><stop offset="80%" stop-color="#57286d" stop-opacity="1"></stop></linearGradient></defs><defs><linearGradient id="grad2_5" x1="0%" y1="100%" x2="66.7%" y2="0%"><stop offset="20%" stop-color="#2a275a" stop-opacity="1"></stop><stop offset="80%" stop-color="#57286d" stop-opacity="1"></stop></linearGradient></defs><defs><linearGradient id="grad2_6" x1="0%" y1="100%" x2="66.7%" y2="0%"><stop offset="20%" stop-color="#2a275a" stop-opacity="1"></stop><stop offset="80%" stop-color="#081f3e" stop-opacity="1"></stop></linearGradient></defs><defs><linearGradient id="grad2_7" x1="0%" y1="100%" x2="66.7%" y2="0%"><stop offset="20%" stop-color="#001220" stop-opacity="1"></stop><stop offset="80%" stop-color="#081f3e" stop-opacity="1"></stop></linearGradient></defs><g transform="translate(900, 600)"><path d="M-486.7 0C-476 -60.1 -465.2 -120.2 -445.3 -184.5C-425.5 -248.8 -396.6 -317.3 -344.2 -344.2C-291.8 -371.1 -215.9 -356.4 -154.6 -373.2C-93.3 -390.1 -46.7 -438.4 0 -486.7L0 0Z" fill="#02192f"></path><path d="M-425.9 0C-416.5 -52.6 -407 -105.1 -389.6 -161.4C-372.3 -217.7 -347 -277.6 -301.2 -301.2C-255.3 -324.7 -188.9 -311.9 -135.3 -326.6C-81.7 -341.3 -40.8 -383.6 0 -425.9L0 0Z" fill="#17244d"></path><path d="M-365.1 0C-357 -45.1 -348.9 -90.1 -334 -138.3C-319.1 -186.6 -297.4 -237.9 -258.1 -258.1C-218.8 -278.3 -161.9 -267.3 -116 -279.9C-70 -292.6 -35 -328.8 0 -365.1L0 0Z" fill="#402965"></path><path d="M-304.2 0C-297.5 -37.5 -290.7 -75.1 -278.3 -115.3C-265.9 -155.5 -247.9 -198.3 -215.1 -215.1C-182.4 -231.9 -134.9 -222.8 -96.6 -233.3C-58.3 -243.8 -29.2 -274 0 -304.2L0 0Z" fill="#6f2472"></path><path d="M-243.4 0C-238 -30 -232.6 -60.1 -222.7 -92.2C-212.7 -124.4 -198.3 -158.6 -172.1 -172.1C-145.9 -185.6 -107.9 -178.2 -77.3 -186.6C-46.7 -195 -23.3 -219.2 0 -243.4L0 0Z" fill="#a10d72"></path><path d="M-182.5 0C-178.5 -22.5 -174.4 -45.1 -167 -69.2C-159.6 -93.3 -148.7 -119 -129.1 -129.1C-109.4 -139.2 -81 -133.7 -58 -140C-35 -146.3 -17.5 -164.4 0 -182.5L0 0Z" fill="#ce0063"></path><path d="M-121.7 0C-119 -15 -116.3 -30 -111.3 -46.1C-106.4 -62.2 -99.1 -79.3 -86 -86C-72.9 -92.8 -54 -89.1 -38.7 -93.3C-23.3 -97.5 -11.7 -109.6 0 -121.7L0 0Z" fill="#f20048"></path><path d="M-60.8 0C-59.5 -7.5 -58.1 -15 -55.7 -23.1C-53.2 -31.1 -49.6 -39.7 -43 -43C-36.5 -46.4 -27 -44.6 -19.3 -46.7C-11.7 -48.8 -5.8 -54.8 0 -60.8L0 0Z" fill="#ff0036"></path></g><g transform="translate(0, 0)"><path d="M486.7 0C480.4 63.6 474.1 127.2 449.7 186.3C425.3 245.3 382.9 299.9 331.6 331.6C280.3 363.4 220.2 372.4 163.4 394.5C106.7 416.6 53.3 451.7 0 486.7L0 0Z" fill="#02192f"></path><path d="M425.9 0C420.4 55.7 414.8 111.3 393.5 163C372.2 214.7 335.1 262.4 290.2 290.2C245.3 318 192.6 325.9 143 345.2C93.3 364.5 46.7 395.2 0 425.9L0 0Z" fill="#17244d"></path><path d="M365.1 0C360.3 47.7 355.6 95.4 337.3 139.7C319 184 287.2 224.9 248.7 248.7C210.3 272.6 165.1 279.3 122.6 295.9C80 312.4 40 338.7 0 365.1L0 0Z" fill="#402965"></path><path d="M304.2 0C300.3 39.8 296.3 79.5 281.1 116.4C265.8 153.3 239.3 187.4 207.3 207.3C175.2 227.1 137.6 232.8 102.1 246.6C66.7 260.3 33.3 282.3 0 304.2L0 0Z" fill="#6f2472"></path><path d="M243.4 0C240.2 31.8 237 63.6 224.8 93.1C212.7 122.7 191.5 149.9 165.8 165.8C140.2 181.7 110.1 186.2 81.7 197.2C53.3 208.3 26.7 225.8 0 243.4L0 0Z" fill="#a10d72"></path><path d="M182.5 0C180.2 23.9 177.8 47.7 168.6 69.9C159.5 92 143.6 112.4 124.4 124.4C105.1 136.3 82.6 139.7 61.3 147.9C40 156.2 20 169.4 0 182.5L0 0Z" fill="#ce0063"></path><path d="M121.7 0C120.1 15.9 118.5 31.8 112.4 46.6C106.3 61.3 95.7 75 82.9 82.9C70.1 90.9 55 93.1 40.9 98.6C26.7 104.1 13.3 112.9 0 121.7L0 0Z" fill="#f20048"></path><path d="M60.8 0C60.1 8 59.3 15.9 56.2 23.3C53.2 30.7 47.9 37.5 41.5 41.5C35 45.4 27.5 46.6 20.4 49.3C13.3 52.1 6.7 56.5 0 60.8L0 0Z" fill="#ff0036"></path></g></svg>